<svg width="186" height="31" viewBox="0 0 206 31" fill="none" xmlns="http://www.w3.org/2000/svg">
<path d="M85.4961 15.5182L80.5095 8.95541C80.3926 8.8022 80.2419 8.67805 80.0692 8.59262C79.8965 8.50718 79.7064 8.46278 79.5136 8.46285H75.7737V7.23233C75.7728 7.06956 75.7398 6.90857 75.6766 6.75855C75.6135 6.60853 75.5214 6.47241 75.4056 6.35798C75.2899 6.24355 75.1527 6.15304 75.002 6.09162C74.8512 6.0302 74.6899 5.99908 74.5271 6.00002H58.7399C58.5771 5.99908 58.4158 6.0302 58.265 6.09162C58.1143 6.15304 57.9771 6.24355 57.8614 6.35798C57.7456 6.47241 57.6535 6.60853 57.5904 6.75855C57.5272 6.90857 57.4942 7.06956 57.4933 7.23233V21.5902H56.2466C55.9182 21.5883 55.6025 21.7168 55.3687 21.9475C55.135 22.1782 55.0024 22.4923 55 22.8207C55 23.5013 55.5588 24.0512 56.2466 24.0512H61.8386C62.1101 24.888 62.6402 25.6171 63.3525 26.1334C64.0648 26.6497 64.9227 26.9266 65.8024 26.9242C66.6822 26.9266 67.54 26.6497 68.2523 26.1334C68.9646 25.6171 69.4947 24.888 69.7662 24.0512H73.4721C73.7436 24.888 74.2737 25.6171 74.986 26.1334C75.6984 26.6497 76.5562 26.9266 77.4359 26.9242C78.3157 26.9266 79.1735 26.6497 79.8858 26.1334C80.5981 25.6171 81.1282 24.888 81.3997 24.0512H84.4984C84.8268 24.0531 85.1426 23.9246 85.3763 23.6939C85.6101 23.4632 85.7427 23.1491 85.745 22.8207V16.2561C85.7443 15.9894 85.658 15.7302 85.4961 15.5182ZM65.8024 24.4614C65.3646 24.4638 64.9437 24.2924 64.632 23.9848C64.3204 23.6772 64.1435 23.2585 64.1402 22.8207C64.1402 21.9161 64.8853 21.18 65.8024 21.18C66.7177 21.18 67.4646 21.9144 67.4646 22.8207C67.4613 23.2585 67.2844 23.6772 66.9728 23.9848C66.6612 24.2924 66.2403 24.4638 65.8024 24.4614ZM73.2805 21.5902H69.7662C69.4947 20.7534 68.9646 20.0243 68.2523 19.508C67.54 18.9917 66.6822 18.7148 65.8024 18.7172C64.9227 18.7148 64.0648 18.9917 63.3525 19.508C62.6402 20.0243 62.1101 20.7534 61.8386 21.5902H59.9866V8.46105H73.2805V21.5902ZM79.0981 22.8207C79.0948 23.2585 78.9179 23.6772 78.6063 23.9848C78.2947 24.2924 77.8738 24.4638 77.4359 24.4614C76.9981 24.4638 76.5772 24.2924 76.2655 23.9848C75.9539 23.6772 75.777 23.2585 75.7737 22.8207C75.7737 21.9161 76.5188 21.18 77.4359 21.18C78.3512 21.18 79.0963 21.9161 79.0981 22.8207ZM83.2536 21.5902H81.3979C81.1265 20.7536 80.5967 20.0248 79.8847 19.5085C79.1728 18.9923 78.3154 18.7152 77.4359 18.7172C76.8448 18.7172 76.2824 18.8408 75.7737 19.0611V10.9239H78.8903L83.2518 16.6663L83.2536 21.5902Z" fill="RGBA(255,255,255,0.2)"/>
<path fill-rule="evenodd" clip-rule="evenodd" d="M19.8921 4.00173H10.1097V7.57441H5.21669V15.4069L1.17317 16.1946L4.05604 24.6153L6.37735 23.8622L4.369 17.9992L13.7759 16.1686V21.8581H16.2241V16.1686L25.631 17.9992L23.6227 23.8622L25.944 24.6153L28.8268 16.1946L24.7851 15.4069V7.57441H19.8921V4.00173ZM17.4456 7.57441V6.38236H12.5544V7.57441H17.4456ZM22.3386 9.95503V14.9314L15.0009 13.5017L7.66319 14.9297V9.95503H22.3386ZM0.325484 27.8097L0.650969 28.9584L0.659911 28.9549L0.695678 28.9462L0.833383 28.9098C1.60196 28.7149 2.37537 28.5384 3.15291 28.3805C4.61043 28.0856 6.34337 27.8097 7.66319 27.8097C8.93294 27.8097 9.89866 28.0647 11.0075 28.3632L11.0396 28.3719C12.1395 28.6669 13.3824 29 15.0009 29C16.6194 29 17.8623 28.6669 18.9621 28.3719L18.9943 28.3632C20.1031 28.0647 21.0689 27.8097 22.3386 27.8097C23.6584 27.8097 25.3896 28.0856 26.8471 28.3805C27.6717 28.5483 28.4917 28.7369 29.3061 28.9462L29.3419 28.9549L29.349 28.9584L29.6763 27.8097L30 26.6628L29.9839 26.6593L29.9446 26.6471L29.7908 26.609L29.2328 26.4684C28.6059 26.3182 27.9763 26.1787 27.3443 26.0502C25.8599 25.7501 23.9231 25.4291 22.3368 25.4291C20.7201 25.4291 19.4772 25.764 18.3773 26.0589L18.3434 26.0676C17.2364 26.3643 16.2706 26.6194 14.9991 26.6194C13.7294 26.6194 12.7636 26.3643 11.6566 26.0676L11.6244 26.0589C10.5228 25.764 9.28167 25.4291 7.66319 25.4291C6.07869 25.4291 4.14188 25.7501 2.65574 26.0502C1.90104 26.2029 1.24113 26.3556 0.769002 26.4684C0.532936 26.5274 0.34158 26.5743 0.211028 26.609L0.0572281 26.6471L0.0160955 26.6593L0.00536516 26.661L0 26.6628L0.325484 27.8097Z" fill="RGBA(255,255,255,0.2)"/>
<path d="M172.919 13.4713L165.317 5H161.093L165.317 13.4713M164.479 20.5305H155.944L152.745 8.52957H155.944L160.212 13.9844H181.545C182.399 13.9844 183.252 14.3107 183.785 14.9669C185.065 16.2758 185.065 18.3478 183.785 19.5479C183.145 20.2024 182.399 20.5305 181.545 20.5305H172.158M165.749 18.4113H174.31L164.679 29H160.397L165.749 18.4113Z" stroke="RGBA(255,255,255,0.2)" stroke-width="2.3" stroke-miterlimit="10" stroke-linecap="round" stroke-linejoin="round"/>
<path d="M111.964 30L114.385 22.6938M124.103 22.6938L126.528 30M113.181 27.5682H126.526M119.244 15.3894V6.87437M114.385 19.0407H116.821M121.669 19.0407H124.105M110.745 15.3894H127.745M116.821 6.87437V2M121.669 6.87437V2M126.528 3.22127L125.309 2H113.181L111.962 3.22127M114.385 6.87437H124.091C124.812 6.87246 125.517 7.08533 126.118 7.4861C126.719 7.88687 127.188 8.45757 127.467 9.12614C127.651 9.57007 127.745 10.0461 127.745 10.5275V22.7063H110.745V10.5275C110.744 10.047 110.838 9.57113 111.021 9.12715C111.204 8.68317 111.472 8.27982 111.81 7.94025C112.148 7.60067 112.55 7.33155 112.992 7.14834C113.434 6.96512 113.907 6.8732 114.385 6.87437Z" stroke="RGBA(255,255,255,0.2)" stroke-width="2.3" stroke-miterlimit="10"/>
</svg>
