<svg width="108" height="67" viewBox="0 0 108 67" fill="none" xmlns="http://www.w3.org/2000/svg">
<path d="M14.065 32.9784L12.6238 31.0817C12.5901 31.0374 12.5465 31.0015 12.4966 30.9768C12.4467 30.9521 12.3917 30.9393 12.336 30.9393H11.2551V30.5837C11.2549 30.5366 11.2453 30.4901 11.2271 30.4467C11.2088 30.4034 11.1822 30.364 11.1487 30.331C11.1153 30.2979 11.0756 30.2717 11.0321 30.254C10.9885 30.2362 10.9419 30.2272 10.8948 30.2275H6.33211C6.28507 30.2272 6.23843 30.2362 6.19486 30.254C6.1513 30.2717 6.11166 30.2979 6.0782 30.331C6.04474 30.364 6.01813 30.4034 5.99987 30.4467C5.98162 30.4901 5.97208 30.5366 5.97181 30.5837V34.7333H5.61152C5.5166 34.7327 5.42534 34.7699 5.35779 34.8366C5.29023 34.9032 5.2519 34.994 5.25122 35.0889C5.25122 35.2856 5.41273 35.4446 5.61152 35.4446H7.22767C7.30614 35.6864 7.45935 35.8971 7.66522 36.0463C7.87109 36.1956 8.11901 36.2756 8.37327 36.2749C8.62754 36.2756 8.87545 36.1956 9.08133 36.0463C9.2872 35.8971 9.4404 35.6864 9.51887 35.4446H10.5899C10.6684 35.6864 10.8216 35.8971 11.0275 36.0463C11.2333 36.1956 11.4813 36.2756 11.7355 36.2749C11.9898 36.2756 12.2377 36.1956 12.4436 36.0463C12.6494 35.8971 12.8027 35.6864 12.8811 35.4446H13.7767C13.8716 35.4451 13.9629 35.408 14.0304 35.3413C14.098 35.2746 14.1363 35.1838 14.137 35.0889V33.1917C14.1368 33.1146 14.1118 33.0397 14.065 32.9784ZM8.37327 35.5631C8.24673 35.5638 8.12508 35.5143 8.03502 35.4254C7.94495 35.3365 7.89384 35.2155 7.89288 35.0889C7.89288 34.8275 8.10823 34.6147 8.37327 34.6147C8.6378 34.6147 8.85367 34.827 8.85367 35.0889C8.85271 35.2155 8.80159 35.3365 8.71153 35.4254C8.62147 35.5143 8.49982 35.5638 8.37327 35.5631ZM10.5345 34.7333H9.51887C9.4404 34.4914 9.2872 34.2807 9.08133 34.1315C8.87545 33.9823 8.62754 33.9023 8.37327 33.9029C8.11901 33.9023 7.87109 33.9823 7.66522 34.1315C7.45935 34.2807 7.30614 34.4914 7.22767 34.7333H6.69241V30.9388H10.5345V34.7333ZM12.2159 35.0889C12.215 35.2155 12.1638 35.3365 12.0738 35.4254C11.9837 35.5143 11.8621 35.5638 11.7355 35.5631C11.609 35.5638 11.4873 35.5143 11.3973 35.4254C11.3072 35.3365 11.2561 35.2155 11.2551 35.0889C11.2551 34.8275 11.4705 34.6147 11.7355 34.6147C12.0001 34.6147 12.2154 34.8275 12.2159 35.0889ZM13.4169 34.7333H12.8806C12.8022 34.4915 12.649 34.2809 12.4433 34.1317C12.2375 33.9825 11.9897 33.9024 11.7355 33.9029C11.5647 33.9029 11.4021 33.9387 11.2551 34.0023V31.6506H12.1559L13.4164 33.3102V34.7333H13.4169ZM11.9152 55.6253C11.9021 49.532 13.095 43.4964 15.4249 37.8662C17.7559 32.2334 21.1773 27.1169 25.4925 22.8109C29.811 18.5016 34.9376 15.0872 40.5784 12.7635C46.2216 10.4387 52.2679 9.24957 58.3711 9.26405L58.3608 13.5415C52.8218 13.5287 47.3345 14.6083 42.2132 16.7185C37.0945 18.8271 32.4423 21.9254 28.5235 25.8356C24.6072 29.7435 21.5021 34.3869 19.3866 39.4989C17.2721 44.6086 16.1896 50.0861 16.2014 55.616L11.9152 55.6253ZM67.8548 31.032L74.5187 27.2043V55.6253H67.8548V31.032ZM90.069 24.5839H96.7329V55.6253H90.069V24.5839ZM107.84 17.9319V24.5839H79.3657V17.9319H107.84ZM67.8548 21.8139L74.5187 17.9319V24.5316L67.8548 28.4136V21.8139Z" fill="#103055"/>
<path d="M53.5164 17.9319H58.3634V55.6253H53.5164V17.9319Z" fill="#103055"/>
<path d="M36.8812 67L34.6164 62.7225L56.0934 51.3923L58.3582 55.6693L36.8812 67ZM49.8814 22.77V17.9319H58.3633V22.7695L49.8814 22.77Z" fill="#103055"/>
<path fill-rule="evenodd" clip-rule="evenodd" d="M5.75801 48.1673H2.92637V49.2331H1.51004V51.5699L0.33959 51.8049L1.17407 54.3172L1.846 54.0925L1.26466 52.3433L3.98759 51.7971V53.4946H4.69628V51.7971L7.41921 52.3433L6.83787 54.0925L7.5098 54.3172L8.34428 51.8049L7.17435 51.5699V49.2331H5.75801V48.1673ZM5.04985 49.2331V48.8775H3.63403V49.2331H5.04985ZM6.46618 49.9434V51.4281L4.34219 51.0015L2.2182 51.4275V49.9434H6.46618ZM0.0942154 55.2702L0.188431 55.6129L0.191019 55.6118L0.201373 55.6093L0.241233 55.5984C0.463707 55.5402 0.68758 55.4876 0.912648 55.4405C1.33455 55.3525 1.83617 55.2702 2.2182 55.2702C2.58575 55.2702 2.86529 55.3463 3.18624 55.4353L3.19556 55.4379C3.51393 55.5259 3.87371 55.6253 4.34219 55.6253C4.81068 55.6253 5.17046 55.5259 5.48883 55.4379L5.49815 55.4353C5.8191 55.3463 6.09864 55.2702 6.46618 55.2702C6.84822 55.2702 7.34932 55.3525 7.77122 55.4405C8.00992 55.4905 8.24726 55.5468 8.48302 55.6093L8.49337 55.6118L8.49544 55.6129L8.59017 55.2702L8.68387 54.928L8.67921 54.927L8.66782 54.9233L8.6233 54.912L8.46179 54.87C8.28033 54.8252 8.09808 54.7836 7.91514 54.7453C7.48547 54.6557 6.92484 54.5599 6.46567 54.5599C5.99769 54.5599 5.63792 54.6599 5.31955 54.7479L5.30971 54.7504C4.98928 54.839 4.70974 54.9151 4.34168 54.9151C3.97413 54.9151 3.69459 54.839 3.37416 54.7504L3.36484 54.7479C3.04595 54.6599 2.68669 54.5599 2.2182 54.5599C1.75955 54.5599 1.19892 54.6557 0.768736 54.7453C0.550281 54.7908 0.359261 54.8364 0.222597 54.87C0.154265 54.8876 0.0988745 54.9016 0.0610848 54.912L0.0165654 54.9233L0.00465904 54.927L0.00155301 54.9275L0 54.928L0.0942154 55.2702Z" fill="#103055"/>
<path d="M54.7283 3.41906L52.5215 1H51.2951L52.5215 3.41906M52.2782 5.43486H49.8006L48.8719 2.0079H49.8006L51.0394 3.56556H57.2323C57.4802 3.56556 57.7277 3.65874 57.8825 3.84614C58.2542 4.21989 58.2542 4.81158 57.8825 5.15428C57.6966 5.34116 57.4802 5.43486 57.2323 5.43486H54.5073M52.6468 4.8297H55.1321L52.3362 7.8534H51.0933L52.6468 4.8297Z" stroke="#103055" stroke-width="0.5" stroke-miterlimit="10" stroke-linecap="round" stroke-linejoin="round"/>
<path d="M22.3114 18.5536L23.0181 16.4322M25.8538 16.4322L26.5615 18.5536M22.6666 17.8475H26.561M24.436 14.3113V11.8389M23.0181 15.3715H23.7288M25.1436 15.3715H25.8544M21.9558 14.3113H26.9166M23.7288 11.8389V10.4236M25.1436 11.8389V10.4236M26.5615 10.7782L26.2059 10.4236H22.6666L22.3109 10.7782M23.0181 11.8389H25.8502C26.0607 11.8384 26.2665 11.9002 26.4419 12.0165C26.6172 12.1329 26.7541 12.2986 26.8353 12.4927C26.8892 12.6216 26.9166 12.7598 26.9166 12.8996V16.4358H21.9558V12.8996C21.9556 12.7601 21.9829 12.6219 22.0363 12.493C22.0896 12.3641 22.1678 12.247 22.2665 12.1484C22.3652 12.0498 22.4824 11.9717 22.6114 11.9185C22.7404 11.8653 22.8786 11.8386 23.0181 11.8389Z" stroke="#103055" stroke-width="0.5" stroke-miterlimit="10"/>
</svg>
