<svg width="64" height="64" viewBox="0 0 64 64" fill="none" xmlns="http://www.w3.org/2000/svg">
<path fill-rule="evenodd" clip-rule="evenodd" d="M32 63.6667C49.4895 63.6667 63.6667 49.4895 63.6667 32C63.6667 14.5105 49.4895 0.333374 32 0.333374C14.5105 0.333374 0.333374 14.5105 0.333374 32C0.333374 49.4895 14.5105 63.6667 32 63.6667ZM49.0082 21.9775C49.1563 21.8249 49.2722 21.644 49.3489 21.4456C49.4256 21.2473 49.4616 21.0355 49.4546 20.8229C49.4476 20.6103 49.3979 20.4013 49.3084 20.2084C49.2189 20.0154 49.0914 19.8425 48.9336 19.6999C48.7758 19.5573 48.5909 19.448 48.3899 19.3784C48.1889 19.3089 47.9759 19.2805 47.7637 19.2951C47.5516 19.3096 47.3445 19.3668 47.1549 19.4632C46.9652 19.5595 46.797 19.6931 46.6601 19.8559L27.6934 40.8145L17.2592 30.8537C16.9556 30.5635 16.5492 30.4059 16.1293 30.4154C15.7094 30.4249 15.3105 30.6008 15.0204 30.9044C14.7302 31.208 14.5725 31.6144 14.582 32.0343C14.5915 32.4541 14.7674 32.853 15.071 33.1432L26.6832 44.2265L27.8596 45.3507L28.9505 44.1442L49.0082 21.9775Z" fill="#1C477E"/>
</svg>